<?xml version="1.0" standalone="no"?>
<!DOCTYPE svg PUBLIC "-//W3C//DTD SVG 20010904//EN"
 "http://www.w3.org/TR/2001/REC-SVG-20010904/DTD/svg10.dtd">
<svg version="1.0" xmlns="http://www.w3.org/2000/svg"
 width="700.000000pt" height="700.000000pt" viewBox="0 0 700.000000 700.000000"
 preserveAspectRatio="xMidYMid meet">
<metadata>
Created by potrace 1.11, written by Peter Selinger 2001-2013
</metadata>
<g transform="translate(0.000000,700.000000) scale(0.100000,-0.100000)"
fill="#000000" stroke="none">
<path d="M3665 5390 c-662 -44 -1281 -387 -1676 -930 -377 -518 -518 -1171
-389 -1800 117 -570 445 -1070 920 -1405 292 -205 619 -334 990 -391 170 -26
492 -24 665 4 346 56 643 171 922 356 101 67 262 197 318 255 l29 32 -366 365
-365 366 -95 -78 c-236 -195 -466 -275 -793 -275 -374 1 -685 142 -933 424
-105 119 -179 242 -227 375 -124 349 -89 749 93 1057 182 307 536 545 887 596
105 15 303 12 412 -6 218 -37 403 -125 581 -276 l74 -62 366 366 366 366 -20
22 c-32 36 -204 177 -284 234 -421 296 -943 440 -1475 405z"/>
</g>
</svg>
