<svg xmlns="http://www.w3.org/2000/svg" viewBox="0 0 1984.25 396.85"><defs/><g id="Layer_2" data-name="Layer 2"><g id="Layer_1-2" data-name="Layer 1"><path fill="#37fe70" d="M0 0h73.55v396.85H0z"/><path fill="#39cccb" d="M73.55 0h73.55v396.85H73.55z"/><path fill="#7fdbff" d="M147.09 0h73.55v396.85h-73.55z"/><path class="cls-4" d="M220.62 311.29A129.25 129.25 0 0 1 179.53 339a127 127 0 0 1-50.38 10 127 127 0 0 1-50.39-10A129 129 0 0 1 10 270.18a130.49 130.49 0 0 1 0-100.34 129 129 0 0 1 68.73-68.77 127 127 0 0 1 50.39-10 127 127 0 0 1 50.38 10 129.25 129.25 0 0 1 41.09 27.66L179 170.33q-20.53-20.55-49.89-20.56-28.38 0-49.9 20.56-20.51 20.55-20.51 49.92 0 28.89 20.55 49.44a68.84 68.84 0 0 0 23 15.42 71.23 71.23 0 0 0 26.91 5.14q29.82 0 49.89-20.56z"/><path class="cls-4" d="M345.55 91a127 127 0 0 1 50.38 10 129 129 0 0 1 68.73 68.77 130.49 130.49 0 0 1 0 100.34A129 129 0 0 1 395.93 339a131.57 131.57 0 0 1-100.77 0 129 129 0 0 1-68.73-68.77 130.49 130.49 0 0 1 0-100.34 129 129 0 0 1 68.73-68.77A127 127 0 0 1 345.55 91zm0 58.73q-29.35 0-49.9 20.56t-20.55 49.96q0 28.89 20.55 49.44a63.29 63.29 0 0 0 22.75 15.42 73 73 0 0 0 27.15 5.14 71.26 71.26 0 0 0 26.9-5.14 68.84 68.84 0 0 0 23-15.42Q416 249.14 416 220.25q0-29.35-20.55-49.92-21.53-20.55-49.9-20.56zM499 342.62V0h58.71v342.62zM711.06 91a127.09 127.09 0 0 1 50.39 10 129 129 0 0 1 68.73 68.77 130.49 130.49 0 0 1 0 100.34A129 129 0 0 1 761.45 339a131.59 131.59 0 0 1-100.78 0 129 129 0 0 1-68.73-68.77 130.49 130.49 0 0 1 0-100.34 129 129 0 0 1 68.73-68.77A127.05 127.05 0 0 1 711.06 91zm0 58.73q-29.35 0-49.9 20.56t-20.54 49.92q0 28.89 20.54 49.44a63.38 63.38 0 0 0 22.75 15.42 73.11 73.11 0 0 0 27.15 5.14 71.31 71.31 0 0 0 26.94-5.1 68.94 68.94 0 0 0 23-15.42q20.53-20.55 20.54-49.44 0-29.35-20.54-49.92-21.58-20.55-49.94-20.56zM953.6 97.89q17.4-7.33 39.4-7.34v58.73q-29.36 0-49.9 20.56-20.55 21.54-20.54 49.93v122.85h-58.73V97.4h58.71v19.09a125.65 125.65 0 0 1 31.06-18.6zM1252.24 97.4v245.22h-58.7V220.25q0-29.35-20.55-49.92t-49.89-20.56a70.61 70.61 0 0 0-49.9 20.56q-20.55 20.55-20.55 49.92 0 28.89 20.55 49.44a63.29 63.29 0 0 0 22.8 15.42 73 73 0 0 0 27.15 5.14 67.9 67.9 0 0 0 26.41-4.9l21 52.37Q1148 349 1118.2 349a121.8 121.8 0 0 1-49.65-10 120.34 120.34 0 0 1-39.38-27.66 127.41 127.41 0 0 1-25.92-41.11 140 140 0 0 1 0-100.34 127.41 127.41 0 0 1 25.92-41.11 120.34 120.34 0 0 1 39.38-27.66 121.8 121.8 0 0 1 49.65-10q24 0 42.56 7.34a128.33 128.33 0 0 1 32.78 18.6V97.4zM1424.29 91.53a121.8 121.8 0 0 1 49.65 10 120.34 120.34 0 0 1 39.38 27.66 127.78 127.78 0 0 1 25.93 41.11 140.11 140.11 0 0 1 0 100.34 127.78 127.78 0 0 1-25.93 41.11 120.34 120.34 0 0 1-39.38 27.66 121.8 121.8 0 0 1-49.65 10q-28.87 0-52.35-11.26l21-52.37a68 68 0 0 0 26.42 4.9q29.82 0 49.89-20.56 20.55-20.56 20.55-49.44 0-29.36-20.55-49.92t-49.89-20.56q-28.38 0-49.9 20.56-20.55 20.55-20.55 49.92v122.43h-58.7V0H1349v117.47a127.87 127.87 0 0 1 32.78-18.6q18.53-7.33 42.51-7.34zM1572.8 342.62V0h58.71v342.62zM1849 249.62h-128.17a60.61 60.61 0 0 0 14.17 20.07 68.84 68.84 0 0 0 23 15.42 71.27 71.27 0 0 0 26.91 5.14q20.05 0 35.71-9.3l61.15 24.47a123.31 123.31 0 0 1-42.56 32.06 129.52 129.52 0 0 1-173.42-67.3 130.49 130.49 0 0 1 0-100.34 129 129 0 0 1 68.73-68.77 131.59 131.59 0 0 1 100.78 0 129 129 0 0 1 68.7 68.77 127.14 127.14 0 0 1 10 50.41 120.93 120.93 0 0 1-3.42 29.37zm-64.08-99.85q-28.38 0-49.9 20.56a66.24 66.24 0 0 0-14.18 20.56H1849a66.58 66.58 0 0 0-14.18-20.56q-20.56-20.55-49.91-20.56zM1925.55 342.62v-58.74h58.7v58.74z"/></g></g></svg>